# xmcd
#
# Track frame offsets:
#	150
#	18249
#	35636
#	54316
#	83536
#
# Disc length: 1670 seconds
#
# Revision: 0
# Processed by: cddbd v1.5.1PL2 Copyright (c) Steve Scherf et al.
# Submitted via: EasyCDDAExtractor 8.2.3.1
#
DISCID=2e068405
DTITLE=LeAnn Rimes - Suddenly
DYEAR=2003
DGENRE=Country
TTITLE0=Suddenly
TTITLE1=Suddenly - DJ Encore Eadio Edit
TTITLE2=Suddenly - Riva Radio Edit
TTITLE3=Suddenly - Almighty Radio Edit
TTITLE4=Suddenly - Video
EXTD=
EXTT0=
EXTT1=
EXTT2=
EXTT3=
EXTT4=
PLAYORDER=
